<svg width="10" height="11" viewBox="0 0 10 11" fill="none" xmlns="http://www.w3.org/2000/svg">
<path d="M5.7208 1.96251L6.45413 3.42917C6.55413 3.63334 6.8208 3.82917 7.0458 3.86667L8.37496 4.08751C9.22496 4.22917 9.42496 4.84584 8.81246 5.45417L7.77913 6.48751C7.60413 6.66251 7.5083 7.00001 7.56246 7.24167L7.8583 8.52084C8.09163 9.53334 7.55413 9.92501 6.6583 9.39584L5.41246 8.65834C5.18746 8.52501 4.81663 8.52501 4.58746 8.65834L3.34163 9.39584C2.44996 9.92501 1.9083 9.52917 2.14163 8.52084L2.43746 7.24167C2.49163 7.00001 2.3958 6.66251 2.2208 6.48751L1.18746 5.45417C0.579129 4.84584 0.774962 4.22917 1.62496 4.08751L2.95413 3.86667C3.17496 3.82917 3.44163 3.63334 3.54163 3.42917L4.27496 1.96251C4.67496 1.16667 5.32496 1.16667 5.7208 1.96251Z" fill="#FBBE21"/>
</svg>
