<svg style="display: none;">

<symbol id="heart" xmlns="http://www.w3.org/2000/svg" viewBox="0 0 24 24"><path fill="currentColor" d="m12.1 18.55l-.1.1l-.11-.1C7.14 14.24 4 11.39 4 8.5C4 6.5 5.5 5 7.5 5c1.54 0 3.04 1 3.57 2.36h1.86C13.46 6 14.96 5 16.5 5c2 0 3.5 1.5 3.5 3.5c0 2.89-3.14 5.74-7.9 10.05M16.5 3c-1.74 0-3.41.81-4.5 2.08C10.91 3.81 9.24 3 7.5 3C4.42 3 2 5.41 2 8.5c0 3.77 3.4 6.86 8.55 11.53L12 21.35l1.45-1.32C18.6 15.36 22 12.27 22 8.5C22 5.41 19.58 3 16.5 3"/></symbol>

<symbol id="plus"  viewBox="0 0 17 16" fill="none" xmlns="http://www.w3.org/2000/svg">
<path d="M4.61743 8H12.6174" stroke="white" stroke-width="1.5" stroke-linecap="round" stroke-linejoin="round"/>
<path d="M8.61743 12V4" stroke="white" stroke-width="2.5" stroke-linecap="round" stroke-linejoin="round"/>
</symbol>

<symbol id="bell" xmlns="http://www.w3.org/2000/svg" viewBox="0 0 256 256"><path fill="currentColor" d="M220.07 176.94C214.41 167.2 206 139.73 206 104a78 78 0 1 0-156 0c0 35.74-8.42 63.2-14.08 72.94A14 14 0 0 0 48 198h42.48a38 38 0 0 0 75 0H208a14 14 0 0 0 12.06-21.06ZM128 218a26 26 0 0 1-25.29-20h50.58A26 26 0 0 1 128 218m81.71-33a1.9 1.9 0 0 1-1.7 1H48a1.9 1.9 0 0 1-1.7-1a2 2 0 0 1 0-2c7.57-13 15.7-43.31 15.7-79a66 66 0 1 1 132 0c0 35.68 8.14 65.95 15.71 79a2 2 0 0 1 0 2" stroke-width="3" stroke="currentColor"/>
</symbol>
<symbol id="home" xmlns="http://www.w3.org/2000/svg" viewBox="0 0 24 24"><g fill="none" stroke="currentColor" stroke-linecap="round" stroke-width="2"><path d="M9 16c.85.63 1.885 1 3 1s2.15-.37 3-1"/><path d="M22 12.204v1.521c0 3.9 0 5.851-1.172 7.063S17.771 22 14 22h-4c-3.771 0-5.657 0-6.828-1.212S2 17.626 2 13.725v-1.521c0-2.289 0-3.433.52-4.381c.518-.949 1.467-1.537 3.364-2.715l2-1.241C9.889 2.622 10.892 2 12 2s2.11.622 4.116 1.867l2 1.241c1.897 1.178 2.846 1.766 3.365 2.715"/></g>
</symbol>
<symbol id="beverage" xmlns="http://www.w3.org/2000/svg" viewBox="0 0 14 14"><path fill="none" stroke="currentColor" stroke-linecap="round" stroke-linejoin="round" d="M11.5 3h-9a1 1 0 0 0-1 1v2a1 1 0 0 0 1 1h9a1 1 0 0 0 1-1V4a1 1 0 0 0-1-1m0 0l-1-2.5h-7L2.5 3m9 4l-1 6.5h-7L2.5 7" stroke-width="1"/>
</symbol>
<symbol id="back" viewBox="0 0 24 24" fill="none" xmlns="http://www.w3.org/2000/svg">
<path d="M15.5 19L8.5 12L15.5 5" stroke="white" stroke-width="2" stroke-linecap="round" stroke-linejoin="round"/>
</symbol>
<symbol id="redHeart" xmlns="http://www.w3.org/2000/svg" viewBox="0 0 24 24"><path fill="red" d="m12 21.35l-1.45-1.32C5.4 15.36 2 12.27 2 8.5C2 5.41 4.42 3 7.5 3c1.74 0 3.41.81 4.5 2.08C13.09 3.81 14.76 3 16.5 3C19.58 3 22 5.41 22 8.5c0 3.77-3.4 6.86-8.55 11.53z"/></symbol>
<symbol id="delete" xmlns="http://www.w3.org/2000/svg" viewBox="0 0 72 72"><path fill="#fff" d="M51.76 17H20.153v37.65c0 4.06 3.29 5.62 7.35 5.62H44.41c4.06 0 7.35-1.56 7.35-5.62zM31 16v-4h10v4"/><path fill="#9b9b9a" d="M51 37v20.621L48.3 60H33z"/><path fill="#fff" d="M17 16h38v4H17z"/><path fill="none" stroke="#000" stroke-linecap="round" stroke-linejoin="round" stroke-miterlimit="10" stroke-width="1" d="M31 16v-4h10v4m10 9v31a4 4 0 0 1-4 4H25a4 4 0 0 1-4-4V25m-4-9h38v4H17zm24 12.25V55M31 28.25V55"/></symbol>
<symbol id="coin" xmlns="http://www.w3.org/2000/svg"  viewBox="0 0 24 24"><g fill="none" stroke="currentColor" stroke-linecap="round" stroke-linejoin="round" stroke-width="1.5"><path d="M3 12a9 9 0 1 0 18 0a9 9 0 1 0-18 0"/><path d="M14.8 9A2 2 0 0 0 13 8h-2a2 2 0 1 0 0 4h2a2 2 0 1 1 0 4h-2a2 2 0 0 1-1.8-1M12 7v10"/></g></symbol>
<symbol id="hamber" viewBox="0 0 32 32" fill="none" xmlns="http://www.w3.org/2000/svg">
<path d="M5.33325 8H26.6666M5.33325 16H26.6666M5.33325 24H26.6666" stroke="white" stroke-width="2" stroke-linecap="round" stroke-linejoin="round"/>
</symbol>
<symbol id="coffee" xmlns="http://www.w3.org/2000/svg"  viewBox="0 0 24 24"><g fill="none" stroke="#fff" stroke-linecap="round" stroke-linejoin="round" stroke-width="1" color="#fff"><path d="M18.25 10.5h1.39c1.852 0 2.402.265 2.357 1.584c-.073 2.183-1.058 4.72-4.997 5.416"/><path d="M5.946 20.615C2.572 18.02 2.075 14.34 2.001 10.5c-.031-1.659.45-2 2.658-2h10.682c2.208 0 2.69.341 2.658 2c-.074 3.84-.57 7.52-3.945 10.115c-.96.738-1.77.885-3.135.885H9.081c-1.364 0-2.174-.147-3.135-.886M11.309 2.5C10.762 2.839 10 4 10 5.5M7.54 4S7 4.5 7 5.5M14.001 4c-.273.17-.501 1-.501 1.5"/></g></symbol>
<symbol id="person" viewBox="0 0 32 32" fill="none" xmlns="http://www.w3.org/2000/svg">
<path d="M8.22396 25.132C8.55397 24.0336 9.22925 23.0709 10.1496 22.3866C11.07 21.7024 12.1864 21.333 13.3333 21.3333H18.6666C19.815 21.3329 20.9328 21.7032 21.8538 22.389C22.7748 23.0749 23.4499 24.0397 23.7786 25.14M4 16C4 17.5759 4.31039 19.1363 4.91345 20.5922C5.5165 22.0481 6.40042 23.371 7.51472 24.4853C8.62902 25.5996 9.95189 26.4835 11.4078 27.0866C12.8637 27.6896 14.4241 28 16 28C17.5759 28 19.1363 27.6896 20.5922 27.0866C22.0481 26.4835 23.371 25.5996 24.4853 24.4853C25.5996 23.371 26.4835 22.0481 27.0866 20.5922C27.6896 19.1363 28 17.5759 28 16C28 14.4241 27.6896 12.8637 27.0866 11.4078C26.4835 9.95189 25.5996 8.62902 24.4853 7.51472C23.371 6.40042 22.0481 5.5165 20.5922 4.91345C19.1363 4.31039 17.5759 4 16 4C14.4241 4 12.8637 4.31039 11.4078 4.91345C9.95189 5.5165 8.62902 6.40042 7.51472 7.51472C6.40042 8.62902 5.5165 9.95189 4.91345 11.4078C4.31039 12.8637 4 14.4241 4 16ZM12 13.3333C12 14.3942 12.4214 15.4116 13.1716 16.1618C13.9217 16.9119 14.9391 17.3333 16 17.3333C17.0609 17.3333 18.0783 16.9119 18.8284 16.1618C19.5786 15.4116 20 14.3942 20 13.3333C20 12.2725 19.5786 11.2551 18.8284 10.5049C18.0783 9.75476 17.0609 9.33333 16 9.33333C14.9391 9.33333 13.9217 9.75476 13.1716 10.5049C12.4214 11.2551 12 12.2725 12 13.3333Z" stroke="white" stroke-width="2" stroke-linecap="round" stroke-linejoin="round"/>
</symbol>
<symbol id="search" xmlns="http://www.w3.org/2000/svg" viewBox="0 0 24 24"><path fill="currentColor" d="M9.5 16q-2.725 0-4.612-1.888T3 9.5t1.888-4.612T9.5 3t4.613 1.888T16 9.5q0 1.1-.35 2.075T14.7 13.3l5.6 5.6q.275.275.275.7t-.275.7t-.7.275t-.7-.275l-5.6-5.6q-.75.6-1.725.95T9.5 16m0-2q1.875 0 3.188-1.312T14 9.5t-1.312-3.187T9.5 5T6.313 6.313T5 9.5t1.313 3.188T9.5 14"/></symbol>
<symbol xmlns="http://www.w3.org/2000/svg" id="minus" viewBox="0 0 24 24"><path fill="#fff" d="M18 12.998H6a1 1 0 0 1 0-2h12a1 1 0 0 1 0 2"/></symbol>
<symbol id="removeHeart" xmlns="http://www.w3.org/2000/svg" viewBox="0 0 48 48"><g fill="none"><path fill="red" stroke="red" stroke-linecap="round" stroke-linejoin="round" stroke-width="4" d="M15 8C8.92487 8 4 12.9249 4 19C4 30 17 40 24 42.3262C31 40 44 30 44 19C44 12.9249 39.0751 8 33 8C29.2797 8 25.9907 9.8469 24 12.6738C22.0093 9.8469 18.7203 8 15 8Z"/><path fill="red" fill-rule="evenodd" d="M28 20L20 28L28 20Z" clip-rule="evenodd"/><path stroke="#fff" stroke-linecap="round" stroke-linejoin="round" stroke-width="4" d="M28 20L20 28"/><path fill="red" fill-rule="evenodd" d="M20 20.0001L28 28L20 20.0001Z" clip-rule="evenodd"/><path stroke="#fff" stroke-linecap="round" stroke-linejoin="round" stroke-width="4" d="M20 20.0001L28 28"/></g></symbol>
 <svg xmlns="http://www.w3.org/2000/svg" id="message" viewBox="0 0 24 24"><g fill="none" stroke="currentColor" stroke-linecap="round" stroke-linejoin="round" stroke-width="2"><path d="M21.25 12a9.23 9.23 0 0 1-2.705 6.54A9.25 9.25 0 0 1 12 21.25a9.2 9.2 0 0 1-3.795-.81l-3.867.572a1.195 1.195 0 0 1-1.361-1.43l.537-3.923A8.9 8.9 0 0 1 2.75 12a9.23 9.23 0 0 1 2.705-6.54A9.25 9.25 0 0 1 12 2.75a9.26 9.26 0 0 1 6.545 2.71A9.24 9.24 0 0 1 21.25 12"/><path d="M12 12.61a.61.61 0 1 0 0-1.221a.61.61 0 0 0 0 1.221m4.279 0a.61.61 0 1 0 0-1.221a.61.61 0 0 0 0 1.221m-8.558 0a.61.61 0 1 0 .001-1.221a.61.61 0 0 0 0 1.221"/></g></svg>
<svg xmlns="http://www.w3.org/2000/svg" id="instagram" viewBox="0 0 256 256"><g fill="none"><rect width="256" height="256" fill="url(#skillIconsInstagram0)" rx="60"/><rect width="256" height="256" fill="url(#skillIconsInstagram1)" rx="60"/><path fill="#fff" d="M128.009 28c-27.158 0-30.567.119-41.233.604c-10.646.488-17.913 2.173-24.271 4.646c-6.578 2.554-12.157 5.971-17.715 11.531c-5.563 5.559-8.98 11.138-11.542 17.713c-2.48 6.36-4.167 13.63-4.646 24.271c-.477 10.667-.602 14.077-.602 41.236s.12 30.557.604 41.223c.49 10.646 2.175 17.913 4.646 24.271c2.556 6.578 5.973 12.157 11.533 17.715c5.557 5.563 11.136 8.988 17.709 11.542c6.363 2.473 13.631 4.158 24.275 4.646c10.667.485 14.073.604 41.23.604c27.161 0 30.559-.119 41.225-.604c10.646-.488 17.921-2.173 24.284-4.646c6.575-2.554 12.146-5.979 17.702-11.542c5.563-5.558 8.979-11.137 11.542-17.712c2.458-6.361 4.146-13.63 4.646-24.272c.479-10.666.604-14.066.604-41.225s-.125-30.567-.604-41.234c-.5-10.646-2.188-17.912-4.646-24.27c-2.563-6.578-5.979-12.157-11.542-17.716c-5.562-5.562-11.125-8.979-17.708-11.53c-6.375-2.474-13.646-4.16-24.292-4.647c-10.667-.485-14.063-.604-41.23-.604zm-8.971 18.021c2.663-.004 5.634 0 8.971 0c26.701 0 29.865.096 40.409.575c9.75.446 15.042 2.075 18.567 3.444c4.667 1.812 7.994 3.979 11.492 7.48c3.5 3.5 5.666 6.833 7.483 11.5c1.369 3.52 3 8.812 3.444 18.562c.479 10.542.583 13.708.583 40.396s-.104 29.855-.583 40.396c-.446 9.75-2.075 15.042-3.444 18.563c-1.812 4.667-3.983 7.99-7.483 11.488c-3.5 3.5-6.823 5.666-11.492 7.479c-3.521 1.375-8.817 3-18.567 3.446c-10.542.479-13.708.583-40.409.583c-26.702 0-29.867-.104-40.408-.583c-9.75-.45-15.042-2.079-18.57-3.448c-4.666-1.813-8-3.979-11.5-7.479s-5.666-6.825-7.483-11.494c-1.369-3.521-3-8.813-3.444-18.563c-.479-10.542-.575-13.708-.575-40.413s.096-29.854.575-40.396c.446-9.75 2.075-15.042 3.444-18.567c1.813-4.667 3.983-8 7.484-11.5s6.833-5.667 11.5-7.483c3.525-1.375 8.819-3 18.569-3.448c9.225-.417 12.8-.542 31.437-.563zm62.351 16.604c-6.625 0-12 5.37-12 11.996c0 6.625 5.375 12 12 12s12-5.375 12-12s-5.375-12-12-12zm-53.38 14.021c-28.36 0-51.354 22.994-51.354 51.355s22.994 51.344 51.354 51.344c28.361 0 51.347-22.983 51.347-51.344c0-28.36-22.988-51.355-51.349-51.355zm0 18.021c18.409 0 33.334 14.923 33.334 33.334c0 18.409-14.925 33.334-33.334 33.334s-33.333-14.925-33.333-33.334c0-18.411 14.923-33.334 33.333-33.334" stroke-width="1" stroke="#fff"/><defs><radialGradient id="skillIconsInstagram0" cx="0" cy="0" r="1" gradientTransform="matrix(0 -253.715 235.975 0 68 275.717)" gradientUnits="userSpaceOnUse"><stop stop-color="#fd5"/><stop offset=".1" stop-color="#fd5"/><stop offset=".5" stop-color="#ff543e"/><stop offset="1" stop-color="#c837ab"/></radialGradient><radialGradient id="skillIconsInstagram1" cx="0" cy="0" r="1" gradientTransform="matrix(22.25952 111.2061 -458.39518 91.75449 -42.881 18.441)" gradientUnits="userSpaceOnUse"><stop stop-color="#3771c8"/><stop offset=".128" stop-color="#3771c8"/><stop offset="1" stop-color="#60f" stop-opacity="0"/></radialGradient></defs></g></svg>
<symbol xmlns="http://www.w3.org/2000/svg" id="telegram" viewBox="0 0 24 24"><path fill="#279bdb" fill-rule="evenodd" d="M5 1a4 4 0 0 0-4 4v14a4 4 0 0 0 4 4h14a4 4 0 0 0 4-4V5a4 4 0 0 0-4-4zm15 11a8 8 0 1 1-16 0a8 8 0 0 1 16 0m-12.986-.77a.19.19 0 0 0-.118.17c0 .074.049.144.118.17l1.929.704l.584 2.872v.004a.56.56 0 0 0 .147.286a.52.52 0 0 0 .525.12a2 2 0 0 0 .159-.076a7 7 0 0 0 .256-.151c.196-.12.444-.28.685-.436a86 86 0 0 0 .87-.573l.073-.048l1.905 1.378a.19.19 0 0 0 .17.023c.056-.02.1-.07.114-.128l1.787-7.519a.19.19 0 0 0-.056-.179a.19.19 0 0 0-.185-.033zm3.169 3.493l-.53-2.6l4.009-2.07a.11.11 0 0 1 .138.035a.11.11 0 0 1-.016.142l-3.012 2.702z" clip-rule="evenodd"/></symbol>
<symbol xmlns="http://www.w3.org/2000/svg" id="whatsapp" viewBox="0 0 448 512"><path fill="#1bae76" d="M224 122.8c-72.7 0-131.8 59.1-131.9 131.8c0 24.9 7 49.2 20.2 70.1l3.1 5l-13.3 48.6l49.9-13.1l4.8 2.9c20.2 12 43.4 18.4 67.1 18.4h.1c72.6 0 133.3-59.1 133.3-131.8c0-35.2-15.2-68.3-40.1-93.2c-25-25-58-38.7-93.2-38.7m77.5 188.4c-3.3 9.3-19.1 17.7-26.7 18.8c-12.6 1.9-22.4.9-47.5-9.9c-39.7-17.2-65.7-57.2-67.7-59.8s-16.2-21.5-16.2-41s10.2-29.1 13.9-33.1c3.6-4 7.9-5 10.6-5c2.6 0 5.3 0 7.6.1c2.4.1 5.7-.9 8.9 6.8c3.3 7.9 11.2 27.4 12.2 29.4s1.7 4.3.3 6.9c-7.6 15.2-15.7 14.6-11.6 21.6c15.3 26.3 30.6 35.4 53.9 47.1c4 2 6.3 1.7 8.6-1c2.3-2.6 9.9-11.6 12.5-15.5c2.6-4 5.3-3.3 8.9-2s23.1 10.9 27.1 12.9s6.6 3 7.6 4.6c.9 1.9.9 9.9-2.4 19.1M400 32H48C21.5 32 0 53.5 0 80v352c0 26.5 21.5 48 48 48h352c26.5 0 48-21.5 48-48V80c0-26.5-21.5-48-48-48M223.9 413.2c-26.6 0-52.7-6.7-75.8-19.3L64 416l22.5-82.2c-13.9-24-21.2-51.3-21.2-79.3C65.4 167.1 136.5 96 223.9 96c42.4 0 82.2 16.5 112.2 46.5c29.9 30 47.9 69.8 47.9 112.2c0 87.4-72.7 158.5-160.1 158.5" stroke-width="13" stroke="#1bae76"/></symbol>
<symbol xmlns="http://www.w3.org/2000/svg" id="seed" viewBox="0 0 48 48"><path fill="#fff" d="M25.305 2.286C30.285 1.236 35.42 2.124 39.662 6l.027.025c-3.617.81-6.872 2.344-9.612 4.698c-3.516 3.021-6.086 7.309-7.53 12.903c-1.317 5.109-3.606 8.823-6.578 11.377c-2.765 2.376-6.207 3.821-10.21 4.392c-3.671-4.19-4.502-9.214-3.473-14.089c1.041-4.93 3.976-9.725 7.781-13.561a283 283 0 0 1 1.677-1.677c3.836-3.805 8.63-6.74 13.561-7.78" stroke-width="1" stroke="#fff"/><path fill="#fff" d="m8.31 41.976l.028.025c4.243 3.875 9.378 4.764 14.357 3.713c4.931-1.04 9.725-3.975 13.561-7.78a295 295 0 0 0 1.677-1.678c3.806-3.836 6.74-8.63 7.781-13.56c1.03-4.876.199-9.9-3.473-14.09c-4.003.571-7.444 2.016-10.21 4.392c-2.972 2.554-5.26 6.268-6.578 11.377c-1.444 5.594-4.013 9.882-7.53 12.903c-2.74 2.354-5.994 3.888-9.612 4.698" stroke-width="1" stroke="#fff"/></symbol>
<symbol xmlns="http://www.w3.org/2000/svg" id="open" viewBox="0 0 512 512"><path fill="none" stroke="currentColor" stroke-linecap="round" stroke-linejoin="round" stroke-width="20" d="M384 224v184a40 40 0 0 1-40 40H104a40 40 0 0 1-40-40V168a40 40 0 0 1 40-40h167.48M336 64h112v112M224 288L440 72"/></symbol>
</svg>
